<?xml version="1.0" encoding="UTF-8" standalone="no"?>
<!-- Created with Inkscape (http://www.inkscape.org/) -->

<svg
   width="435"
   height="165"
   viewBox="0 0 435 165"
   version="1.1"
   id="svg5"
   inkscape:version="1.2.1 (9c6d41e410, 2022-07-14, custom)"
   sodipodi:docname="logo.svg"
   inkscape:export-filename="/home/leo/Documents/Uni/Tesi/logo.png"
   inkscape:export-xdpi="96"
   inkscape:export-ydpi="96"
   xmlns:inkscape="http://www.inkscape.org/namespaces/inkscape"
   xmlns:sodipodi="http://sodipodi.sourceforge.net/DTD/sodipodi-0.dtd"
   xmlns="http://www.w3.org/2000/svg"
   xmlns:svg="http://www.w3.org/2000/svg"
   xmlns:rdf="http://www.w3.org/1999/02/22-rdf-syntax-ns#"
   xmlns:cc="http://creativecommons.org/ns#">
  <sodipodi:namedview
     id="namedview7"
     pagecolor="#505050"
     bordercolor="#eeeeee"
     borderopacity="1"
     inkscape:pageshadow="0"
     inkscape:pageopacity="0"
     inkscape:pagecheckerboard="0"
     inkscape:document-units="px"
     showgrid="false"
     inkscape:snap-bbox="true"
     inkscape:bbox-nodes="false"
     inkscape:snap-bbox-edge-midpoints="false"
     inkscape:bbox-paths="true"
     inkscape:snap-global="true"
     inkscape:snap-bbox-midpoints="false"
     inkscape:object-paths="true"
     inkscape:snap-intersection-paths="false"
     inkscape:snap-smooth-nodes="false"
     inkscape:snap-midpoints="false"
     inkscape:object-nodes="false"
     inkscape:snap-object-midpoints="true"
     inkscape:snap-page="true"
     showguides="true"
     inkscape:guide-bbox="true"
     inkscape:zoom="1.6347656"
     inkscape:cx="159.04421"
     inkscape:cy="106.74313"
     inkscape:window-width="1920"
     inkscape:window-height="1021"
     inkscape:window-x="0"
     inkscape:window-y="0"
     inkscape:window-maximized="1"
     inkscape:current-layer="layer1"
     inkscape:showpageshadow="0"
     inkscape:deskcolor="#505050" />
  <defs
     id="defs2" />
  <g
     inkscape:label="Layer 1"
     inkscape:groupmode="layer"
     id="layer1"
     transform="translate(-44.605054,-153.61574)">
    <path
       d="m 386.64972,304.7028 -19.17954,-32.33123 c 17.80958,-5.47987 25.89239,-17.1246 25.89239,-33.8382 0,-14.93264 -10.27476,-28.08433 -32.05724,-28.08433 h -46.85289 l -16.8506,95.89772 h 27.12536 l 5.47987,-31.09826 h 10.54875 l 16.8506,31.09826 h 28.76931 z m -29.0433,-72.60827 c 15.06964,0 10.00076,22.05647 -3.83591,23.01545 h -20.00153 l 4.10991,-23.01545 z"
       style="font-size:120px;font-family:'Nexa Black Italic';-inkscape-font-specification:'Nexa Black Italic, ';text-align:center;letter-spacing:-8px;text-anchor:middle;white-space:pre;fill:#2ec27e;stroke-width:13.6997"
       id="path867" />
    <path
       d="m 416.69764,306.34676 5.75387,-33.01622 h 42.33199 l 3.9729,-22.19347 h -42.33199 l 3.15093,-17.94657 h 45.20892 l 3.97291,-22.74146 h -72.06029 l -16.8506,95.89772 z"
       style="font-size:120px;font-family:'Nexa Black Italic';-inkscape-font-specification:'Nexa Black Italic, ';text-align:center;letter-spacing:-8px;text-anchor:middle;white-space:pre;fill:#2ec27e;stroke-width:13.6997"
       id="path869" />
    <path
       id="circle75811"
       style="opacity:0.7;fill:none;stroke:#2ec27e;stroke-width:15.983;stroke-linecap:round"
       transform="matrix(0.97095558,-0.23925982,-0.23925982,-0.97095558,0,0)"
       d="m 54.819449,-268.24805 a 40.084019,40.084019 0 0 1 -40.084018,40.08402" />
    <path
       id="circle76145"
       style="opacity:0.7;fill:none;stroke:#2ec27e;stroke-width:15.983;stroke-linecap:round"
       transform="matrix(0.97095558,-0.23925982,-0.23925982,-0.97095558,0,0)"
       d="m 82.12733,-268.24805 a 67.391899,67.391899 0 0 1 -67.391899,67.3919" />
    <path
       id="circle76147"
       style="opacity:0.7;fill:none;stroke:#2ec27e;stroke-width:15.983;stroke-linecap:round"
       d="M 55.683976,164.38708 A 95.31261,95.31261 0 0 1 171.03277,234.12691" />
    <path
       d="m 72.442789,238.36839 c -16.768398,0 -27.837734,12.27491 -27.837734,28.16653 0,16.00122 10.959739,28.05693 27.837734,28.05693 16.987596,0 28.056931,-12.05571 28.056931,-28.05693 0,-15.89162 -11.398128,-28.16653 -28.056931,-28.16653 z m 0,10.41175 c 9.863765,0 16.658803,8.2198 16.658803,17.75478 0,9.64457 -6.247051,17.53558 -16.658803,17.53558 -10.302155,0 -16.549203,-7.89101 -16.549203,-17.53558 0,-9.53498 6.247048,-17.75478 16.549203,-17.75478 z"
       style="font-size:96px;font-family:'Nexa Bold';-inkscape-font-specification:'Nexa Bold, ';text-align:center;white-space:pre;fill:#464646;stroke-width:13.6997"
       id="path874" />
    <path
       d="m 141.70827,283.74171 c -9.86376,0 -16.98759,-7.56222 -16.98759,-17.20679 0,-9.64457 6.57584,-17.20679 16.98759,-17.20679 10.30216,0 17.0972,7.01423 17.0972,17.20679 0,10.08296 -7.23343,17.20679 -17.0972,17.20679 z m -17.97397,34.85197 v -32.98881 c 4.0551,6.68544 12.4941,9.09658 19.06995,9.09658 16.7684,0 27.28975,-11.83652 27.28975,-28.16653 0,-16.33001 -11.17894,-28.05694 -27.28975,-28.16653 -7.23343,0 -14.90525,3.28792 -19.06995,9.86376 l -0.65758,-8.76779 h -10.63095 v 79.12932 z"
       style="font-size:96px;font-family:'Nexa Bold';-inkscape-font-specification:'Nexa Bold, ';text-align:center;white-space:pre;fill:#464646;stroke-width:13.6997"
       id="path876" />
    <path
       d="m 234.42763,270.69962 c 2.08235,-22.02908 -9.75417,-32.66002 -27.18015,-32.66002 -16.878,0 -28.38573,11.72692 -28.38573,28.16653 0,17.31639 11.39813,28.60492 29.15291,28.60492 8.3294,0 17.64518,-3.06873 23.23465,-9.20618 l -7.34303,-7.12383 c -3.28792,3.72631 -10.19256,5.80866 -15.67243,5.80866 -9.86376,0 -16.6588,-5.37027 -17.64518,-13.59008 z m -43.61976,-9.53498 c 1.75356,-8.54859 8.5486,-13.04208 16.7684,-13.04208 9.09658,0 15.34364,4.49349 16.00122,13.04208 z"
       style="font-size:96px;font-family:'Nexa Bold';-inkscape-font-specification:'Nexa Bold, ';text-align:center;white-space:pre;fill:#464646;stroke-width:13.6997"
       id="path878" />
    <path
       d="m 298.32299,293.49588 v -29.04331 c 0,-16.54921 -10.08296,-25.86499 -23.23465,-25.86499 -7.01423,0 -13.04209,2.84953 -18.19316,8.6582 l -0.65759,-7.89102 h -10.30215 v 54.14112 h 11.28853 v -28.27613 c 0,-8.87739 6.13745,-16.22042 15.12444,-16.22042 9.31578,0 14.57645,6.24706 14.57645,15.56283 v 28.93372 z"
       style="font-size:96px;font-family:'Nexa Bold';-inkscape-font-specification:'Nexa Bold, ';text-align:center;white-space:pre;fill:#464646;stroke-width:13.6997"
       id="path880" />
  </g>
  <metadata
     id="metadata838">
    <rdf:RDF>
      <cc:Work
         rdf:about="">
        <cc:license
           rdf:resource="http://creativecommons.org/licenses/by-sa/4.0/" />
      </cc:Work>
      <cc:License
         rdf:about="http://creativecommons.org/licenses/by-sa/4.0/">
        <cc:permits
           rdf:resource="http://creativecommons.org/ns#Reproduction" />
        <cc:permits
           rdf:resource="http://creativecommons.org/ns#Distribution" />
        <cc:requires
           rdf:resource="http://creativecommons.org/ns#Notice" />
        <cc:requires
           rdf:resource="http://creativecommons.org/ns#Attribution" />
        <cc:permits
           rdf:resource="http://creativecommons.org/ns#DerivativeWorks" />
        <cc:requires
           rdf:resource="http://creativecommons.org/ns#ShareAlike" />
      </cc:License>
    </rdf:RDF>
  </metadata>
</svg>
